<svg id="Calque_1" data-name="Calque 1" xmlns="http://www.w3.org/2000/svg" xmlns:xlink="http://www.w3.org/1999/xlink" viewBox="0 0 278.59 277.6">
  <defs>
    <style>
      .cls-1 {
        fill: url(#Saphir);
      }

      .cls-2 {
        fill: none;
        stroke: #e6007e;
        stroke-miterlimit: 10;
      }

      .cls-3 {
        opacity: 0.87;
        fill: url(#Dégradé_sans_nom_20);
      }

      .cls-4 {
        fill: url(#Dégradé_sans_nom_28);
      }
    </style>
    <linearGradient id="Saphir" x1="136.71" y1="197.26" x2="217.47" y2="197.26" gradientUnits="userSpaceOnUse">
      <stop offset="0" stop-color="#2d2377"/>
      <stop offset="0.09" stop-color="#2f277a"/>
      <stop offset="0.19" stop-color="#343483"/>
      <stop offset="0.28" stop-color="#3d4992"/>
      <stop offset="0.38" stop-color="#4966a7"/>
      <stop offset="0.48" stop-color="#588bc1"/>
      <stop offset="0.49" stop-color="#598ec3"/>
      <stop offset="0.59" stop-color="#486aa0"/>
      <stop offset="0.71" stop-color="#354279"/>
      <stop offset="0.83" stop-color="#28265d"/>
      <stop offset="0.93" stop-color="#20144c"/>
      <stop offset="1" stop-color="#1d0e46"/>
    </linearGradient>
    <radialGradient id="Dégradé_sans_nom_20" data-name="Dégradé sans nom 20" cx="136.71" cy="136.68" r="128.59" gradientUnits="userSpaceOnUse">
      <stop offset="0.69" stop-color="#a3195b"/>
      <stop offset="0.71" stop-color="#952567"/>
      <stop offset="0.76" stop-color="#684a8c"/>
      <stop offset="0.81" stop-color="#4268ac"/>
      <stop offset="0.86" stop-color="#2580c4"/>
      <stop offset="0.91" stop-color="#1191d5"/>
      <stop offset="0.95" stop-color="#049ce0"/>
      <stop offset="1" stop-color="#009fe3"/>
    </radialGradient>
    <radialGradient id="Dégradé_sans_nom_28" data-name="Dégradé sans nom 28" cx="151.93" cy="150.97" r="118.54" gradientUnits="userSpaceOnUse">
      <stop offset="0.69" stop-color="#312783"/>
      <stop offset="0.72" stop-color="#2a3890"/>
      <stop offset="0.77" stop-color="#1b5dae"/>
      <stop offset="0.83" stop-color="#0f7ac5"/>
      <stop offset="0.89" stop-color="#078ed6"/>
      <stop offset="0.95" stop-color="#029be0"/>
      <stop offset="1" stop-color="#009fe3"/>
    </radialGradient>
  </defs>
  <g>
    <path class="cls-1" d="M217.47,127.42a59.26,59.26,0,0,0-15.16,13.28,107.63,107.63,0,0,0-10.89,16.19c-3.2,5.69-6.06,11.6-8.75,17.63s-5.17,12.17-7.56,18.39-4.65,12.51-6.86,18.85L165,221.3q-1.68,4.77-3.56,9.5a178.53,178.53,0,0,1-8.75,18.73c-1.67,3.1-3.47,6.18-5.46,9.25a85.76,85.76,0,0,1-6.7,9.14l-.84-.16a56.25,56.25,0,0,1-2.37-11.24,87.41,87.41,0,0,1-.58-11,105.66,105.66,0,0,1,2.4-21.44q1.14-5.25,2.73-10.38c1.06-3.42,2.29-6.79,3.53-10.17q3.75-10.09,8.53-19.88a175.93,175.93,0,0,1,10.79-19c2-3.06,4.16-6.07,6.44-9s4.7-5.75,7.28-8.46c1.27-1.37,2.63-2.67,4-4s2.8-2.51,4.27-3.71,2.94-2.36,4.51-3.42c.78-.54,1.55-1.08,2.36-1.58s1.58-1,2.43-1.48c6.52-3.79,13.94-6.39,21.27-6.37Z"/>
    <path class="cls-2" d="M217.24,126.59s-56,35.49-77.57,141.17c0,0,19.54-25.37,25.41-25.37"/>
  </g>
  <g>
    <path class="cls-3" d="M265.31,123.31a106.22,106.22,0,1,0-142,142,129,129,0,1,1,142-142Z"/>
    <path class="cls-4" d="M270.46,138.64A97.91,97.91,0,1,0,139.61,269.51,118.88,118.88,0,1,1,270.46,138.64Z"/>
  </g>
</svg>
